<?xml version="1.0"?>
<svg xmlns="http://www.w3.org/2000/svg" width="50" height="50" viewBox="0 0 50 50" fill="#7900FF">
    <path d="M 45.03125 3.5 C 42.27425 3.5 40.03125 5.743 40.03125 8.5 C 40.03125 11.257 42.27425 13.5 45.03125 13.5 C 47.78825 13.5 50.03125 11.257 50.03125 8.5 C 50.03125 5.743 47.78825 3.5 45.03125 3.5 z M 27.59375 3.5625 C 27.42575 3.5625 27.265 3.56975 27.125 3.59375 L 16.75 4.71875 C 15.86 4.97275 13.48625 5.61925 13.78125 7.53125 C 13.90625 8.53225 15.30125 9 16.53125 9 C 16.67825 9 16.82325 8.98075 16.90625 8.96875 L 26.625 8.78125 L 30.0625 11.46875 L 22.3125 16.90625 C 20.2165 18.43025 18.3175 20.4195 20.1875 23.6875 L 27.09375 33.65625 C 24.60475 33.68725 17.96175 33.7715 16.46875 33.9375 C 14.08375 34.2175 13.71875 35.6265 13.71875 36.4375 C 13.71875 37.6815 14.59725 38.9375 16.53125 38.9375 L 32.625 38.9375 C 33.925 38.9375 34.93325 38.46125 35.40625 37.65625 C 35.83025 36.93625 35.79925 36.02675 35.28125 35.09375 C 34.56825 33.75775 29.48725 26.03825 28.28125 24.15625 L 38.5625 17.625 C 40.0855 16.657 40.43525 15.1695 39.53125 13.5625 C 38.82925 12.2565 37.1055 9.6185 37.0625 9.5625 C 36.9925 9.4205 36.8635 9.14075 29.1875 4.09375 C 28.7415 3.73675 28.18675 3.5625 27.59375 3.5625 z M 0.8125 12 A 1.0111011 1.0111011 0 0 0 1 14 L 20 14 A 1.0111011 1.0111011 0 1 0 20 12 L 1 12 A 1.0111011 1.0111011 0 0 0 0.8125 12 z M 0.8125 17 A 1.0111011 1.0111011 0 0 0 1 19 L 15 19 A 1.0111011 1.0111011 0 1 0 15 17 L 1 17 A 1.0111011 1.0111011 0 0 0 0.8125 17 z M 40.46875 18.65625 C 40.21675 18.88725 39.937 19.1145 39.625 19.3125 L 35.21875 22.125 L 35.5 23.78125 C 35.506 23.82025 35.51725 23.87125 35.53125 23.90625 C 35.84625 24.64125 36.2605 25.361 37.4375 25.5 C 37.5055 25.496 44.34375 25.09475 45.84375 25.09375 C 48.61775 24.92075 49.1205 23.6815 49.1875 22.9375 C 49.2265 22.3215 49.1095 21.86125 48.8125 21.53125 C 48.3365 21.00325 47.58425 20.9725 46.78125 20.9375 C 46.60525 20.9305 46.41475 20.92025 46.21875 20.90625 L 40.65625 20.625 L 40.46875 18.65625 z M 0.8125 22 A 1.0111011 1.0111011 0 0 0 1 24 L 15 24 A 1.0111011 1.0111011 0 1 0 15 22 L 1 22 A 1.0111011 1.0111011 0 0 0 0.8125 22 z M 0.8125 27 A 1.0111011 1.0111011 0 0 0 1 29 L 19 29 A 1.0111011 1.0111011 0 1 0 19 27 L 1 27 A 1.0111011 1.0111011 0 0 0 0.8125 27 z M 19.84375 40.9375 C 18.33275 42.5005 16.67325 44.215 15.90625 45.125 C 14.54025 46.72 14.345 48.2855 15.375 49.4375 C 15.829 49.8415 16.29625 50 16.78125 50 C 17.87225 50 19.00925 49.13775 20.03125 48.21875 C 21.14025 47.23975 24.90475 43.5015 27.46875 40.9375 L 19.84375 40.9375 z"/>
</svg>
